<svg xmlns="http://www.w3.org/2000/svg" viewBox="0 0 750 750" id="xd" fill="#959595">
  <path
    d="M532.25,110.76H217.75a107.12,107.12,0,0,0-107,107v314.5a107.12,107.12,0,0,0,107,107h314.5a107.12,107.12,0,0,0,107-107V217.75A107.12,107.12,0,0,0,532.25,110.76Zm67,421.49a67.06,67.06,0,0,1-67,67H217.75a67.06,67.06,0,0,1-67-67V217.75a67.06,67.06,0,0,1,67-67h314.5a67.06,67.06,0,0,1,67,67Z">
  </path>
  <path
    d="M528.74,244.46a20,20,0,0,0-20,20v88.17l-33.67.37a73.69,73.69,0,0,0,.8,147.37h52.87a20,20,0,0,0,20-20V264.46A20,20,0,0,0,528.74,244.46Zm-20,215.91H475.87A33.69,33.69,0,0,1,475.5,393l33.24-.36Z">
  </path>
  <path
    d="M390.39,254.59a20,20,0,0,0-27.95,4.32l-62.52,85.37-62.53-85.37a20,20,0,1,0-32.27,23.64l70,95.58-70,95.59a20,20,0,0,0,32.27,23.64L299.92,412l62.52,85.38a20,20,0,0,0,32.27-23.64l-70-95.59,70-95.58A20,20,0,0,0,390.39,254.59Z">
  </path>
</svg>