<svg xmlns="http://www.w3.org/2000/svg" viewBox="0 0 750 750" id="illustrator" fill="#959595">
  <path
    d="M532.25,110.76H217.75a107.12,107.12,0,0,0-107,107v314.5a107.12,107.12,0,0,0,107,107h314.5a107.12,107.12,0,0,0,107-107V217.75A107.12,107.12,0,0,0,532.25,110.76Zm67,421.49a67.06,67.06,0,0,1-67,67H217.75a67.06,67.06,0,0,1-67-67V217.75a67.06,67.06,0,0,1,67-67h314.5a67.06,67.06,0,0,1,67,67Z">
  </path>
  <path
    d="M368 267.85a20 20 0 00-36.6-1.2L271.28 392.23a19.78 19.78 0 00-3 6.24L232 474.18a20 20 0 1036.08 17.28l32.38-67.61h87l26.65 66.42a20 20 0 0037.13-14.89zm-48.39 116L347.85 325l23.62 58.88zM499.94 247.18a20 20 0 00-20 20v10.7a20 20 0 0040 0v-10.7A20 20 0 00499.94 247.18zM499.94 314.59a20 20 0 00-20 20V482.82a20 20 0 1040 0V334.59A20 20 0 00499.94 314.59z">
  </path>
</svg>